<mxfile host="app.diagrams.net" modified="2024-06-19T05:38:16.716Z" agent="Mozilla/5.0 (Windows NT 10.0; Win64; x64) AppleWebKit/537.36 (KHTML, like Gecko) Chrome/126.0.0.0 Safari/537.36 Edg/126.0.0.0" etag="D0EhNS8r69m3S96wWNiG" version="24.4.10" type="device">
  <diagram name="Page-1" id="U0AwXFl9EMLJNZVtmDuN">
    <mxGraphModel dx="739" dy="471" grid="1" gridSize="10" guides="1" tooltips="1" connect="1" arrows="1" fold="1" page="1" pageScale="1" pageWidth="850" pageHeight="1100" math="0" shadow="0">
      <root>
        <mxCell id="0" />
        <mxCell id="1" parent="0" />
        <mxCell id="8ycdVZo2MdviGmbWDh-L-8" style="edgeStyle=orthogonalEdgeStyle;rounded=0;orthogonalLoop=1;jettySize=auto;html=1;entryX=0;entryY=0.5;entryDx=0;entryDy=0;" edge="1" parent="1" source="8ycdVZo2MdviGmbWDh-L-1" target="8ycdVZo2MdviGmbWDh-L-2">
          <mxGeometry relative="1" as="geometry" />
        </mxCell>
        <mxCell id="8ycdVZo2MdviGmbWDh-L-1" value="Frontend&lt;div&gt;&lt;br&gt;&lt;/div&gt;&lt;div&gt;(React SPA)&lt;/div&gt;" style="rounded=0;whiteSpace=wrap;html=1;" vertex="1" parent="1">
          <mxGeometry x="30" y="140" width="160" height="110" as="geometry" />
        </mxCell>
        <mxCell id="8ycdVZo2MdviGmbWDh-L-14" style="edgeStyle=orthogonalEdgeStyle;rounded=0;orthogonalLoop=1;jettySize=auto;html=1;entryX=0;entryY=0.5;entryDx=0;entryDy=0;exitX=0.5;exitY=1;exitDx=0;exitDy=0;" edge="1" parent="1" source="8ycdVZo2MdviGmbWDh-L-2" target="8ycdVZo2MdviGmbWDh-L-11">
          <mxGeometry relative="1" as="geometry" />
        </mxCell>
        <mxCell id="8ycdVZo2MdviGmbWDh-L-15" style="edgeStyle=orthogonalEdgeStyle;rounded=0;orthogonalLoop=1;jettySize=auto;html=1;entryX=0;entryY=0.5;entryDx=0;entryDy=0;exitX=0.5;exitY=0;exitDx=0;exitDy=0;" edge="1" parent="1" source="8ycdVZo2MdviGmbWDh-L-2" target="8ycdVZo2MdviGmbWDh-L-10">
          <mxGeometry relative="1" as="geometry" />
        </mxCell>
        <mxCell id="8ycdVZo2MdviGmbWDh-L-2" value="Server&lt;div&gt;&lt;br&gt;&lt;/div&gt;&lt;div&gt;(Python)&lt;/div&gt;" style="rounded=0;whiteSpace=wrap;html=1;" vertex="1" parent="1">
          <mxGeometry x="300" y="140" width="160" height="110" as="geometry" />
        </mxCell>
        <mxCell id="8ycdVZo2MdviGmbWDh-L-16" style="edgeStyle=orthogonalEdgeStyle;rounded=0;orthogonalLoop=1;jettySize=auto;html=1;entryX=1;entryY=0.5;entryDx=0;entryDy=0;exitX=0.5;exitY=1;exitDx=0;exitDy=0;" edge="1" parent="1" source="8ycdVZo2MdviGmbWDh-L-3" target="8ycdVZo2MdviGmbWDh-L-2">
          <mxGeometry relative="1" as="geometry" />
        </mxCell>
        <mxCell id="8ycdVZo2MdviGmbWDh-L-3" value="Engine 1&lt;div&gt;&lt;br&gt;&lt;/div&gt;&lt;div&gt;(Python)&lt;/div&gt;" style="rounded=0;whiteSpace=wrap;html=1;" vertex="1" parent="1">
          <mxGeometry x="600" width="160" height="110" as="geometry" />
        </mxCell>
        <mxCell id="8ycdVZo2MdviGmbWDh-L-17" style="edgeStyle=orthogonalEdgeStyle;rounded=0;orthogonalLoop=1;jettySize=auto;html=1;entryX=1;entryY=0.5;entryDx=0;entryDy=0;exitX=0.5;exitY=0;exitDx=0;exitDy=0;" edge="1" parent="1" source="8ycdVZo2MdviGmbWDh-L-4" target="8ycdVZo2MdviGmbWDh-L-2">
          <mxGeometry relative="1" as="geometry" />
        </mxCell>
        <mxCell id="8ycdVZo2MdviGmbWDh-L-4" value="Engine 2&lt;div&gt;&lt;br&gt;&lt;/div&gt;&lt;div&gt;(Python)&lt;/div&gt;" style="rounded=0;whiteSpace=wrap;html=1;" vertex="1" parent="1">
          <mxGeometry x="600" y="290" width="160" height="110" as="geometry" />
        </mxCell>
        <mxCell id="8ycdVZo2MdviGmbWDh-L-9" value="WS&lt;div&gt;REST&lt;/div&gt;" style="text;html=1;align=center;verticalAlign=middle;resizable=0;points=[];autosize=1;strokeColor=none;fillColor=none;" vertex="1" parent="1">
          <mxGeometry x="210" y="220" width="60" height="40" as="geometry" />
        </mxCell>
        <mxCell id="8ycdVZo2MdviGmbWDh-L-12" value="" style="edgeStyle=orthogonalEdgeStyle;rounded=0;orthogonalLoop=1;jettySize=auto;html=1;" edge="1" parent="1" source="8ycdVZo2MdviGmbWDh-L-10" target="8ycdVZo2MdviGmbWDh-L-3">
          <mxGeometry relative="1" as="geometry" />
        </mxCell>
        <mxCell id="8ycdVZo2MdviGmbWDh-L-10" value="Q" style="shape=process;whiteSpace=wrap;html=1;backgroundOutline=1;" vertex="1" parent="1">
          <mxGeometry x="490" y="40" width="70" height="30" as="geometry" />
        </mxCell>
        <mxCell id="8ycdVZo2MdviGmbWDh-L-11" value="Q" style="shape=process;whiteSpace=wrap;html=1;backgroundOutline=1;" vertex="1" parent="1">
          <mxGeometry x="490" y="320" width="70" height="30" as="geometry" />
        </mxCell>
        <mxCell id="8ycdVZo2MdviGmbWDh-L-13" style="edgeStyle=orthogonalEdgeStyle;rounded=0;orthogonalLoop=1;jettySize=auto;html=1;entryX=0.031;entryY=0.394;entryDx=0;entryDy=0;entryPerimeter=0;" edge="1" parent="1" source="8ycdVZo2MdviGmbWDh-L-11" target="8ycdVZo2MdviGmbWDh-L-4">
          <mxGeometry relative="1" as="geometry" />
        </mxCell>
        <mxCell id="8ycdVZo2MdviGmbWDh-L-18" value="REST" style="text;html=1;align=center;verticalAlign=middle;resizable=0;points=[];autosize=1;strokeColor=none;fillColor=none;" vertex="1" parent="1">
          <mxGeometry x="540" y="158" width="60" height="30" as="geometry" />
        </mxCell>
        <mxCell id="8ycdVZo2MdviGmbWDh-L-20" style="edgeStyle=orthogonalEdgeStyle;rounded=0;orthogonalLoop=1;jettySize=auto;html=1;entryX=0.25;entryY=1;entryDx=0;entryDy=0;" edge="1" parent="1" source="8ycdVZo2MdviGmbWDh-L-19" target="8ycdVZo2MdviGmbWDh-L-2">
          <mxGeometry relative="1" as="geometry" />
        </mxCell>
        <mxCell id="8ycdVZo2MdviGmbWDh-L-19" value="DB" style="shape=cylinder3;whiteSpace=wrap;html=1;boundedLbl=1;backgroundOutline=1;size=15;" vertex="1" parent="1">
          <mxGeometry x="260" y="330" width="60" height="80" as="geometry" />
        </mxCell>
      </root>
    </mxGraphModel>
  </diagram>
</mxfile>
